<svg id="Layer_1" enable-background="new 0 0 128 128" height="512" viewBox="0 0 128 128" width="512" xmlns="http://www.w3.org/2000/svg"><g><g fill="#e6e7e8"><path d="m85.065 56.919c-.289 0-.563.125-.753.342-.512.586-7.002 8.062-13.12 17.157-3.348-1.969-7.107-3.306-11.117-3.852 6.389-3.072 11.185-8.939 12.808-16.003.3.083.612.129.934.129 2.45 0 4.369-2.529 4.369-5.757 0-2.296-.973-4.233-2.416-5.163 1.208-6.155 2.26-14.533.23-18.902-1.721-3.704-4.948-4.86-7.757-5.088-2.256-3.148-5.881-6.595-11.697-9.229-13.38-6.059-25.275-1.967-29.5 2.108-2.977 2.871-2.944 6.554-1.816 9.967-.559.617-1.06 1.355-1.472 2.243-2.03 4.369-.979 12.747.23 18.902-1.442.93-2.416 2.867-2.416 5.163 0 3.228 1.919 5.757 4.369 5.757.322 0 .634-.046.934-.129 1.623 7.065 6.419 12.931 12.808 16.003-14.656 1.994-25.991 14.584-25.991 29.779v21.173c0 1.657 1.343 3 3 3h68.373c13.714-.001 24.872-11.158 24.872-24.873 0-14.775-23.137-41.266-24.122-42.386-.188-.217-.463-.341-.75-.341z"/><path d="m83.048 47.227 3.791.917c2.149.521 3.809 2.18 4.329 4.329l.918 3.791c.108.449.51.765.972.765s.863-.316.972-.765l.917-3.791c.521-2.149 2.18-3.808 4.329-4.329l3.791-.917c.448-.109.765-.51.765-.972s-.316-.863-.765-.972l-3.791-.917c-2.149-.52-3.809-2.179-4.329-4.328l-.917-3.792c-.108-.449-.51-.765-.972-.765s-.863.316-.972.765l-.918 3.792c-.521 2.149-2.18 3.808-4.329 4.328l-3.791.917c-.448.109-.765.51-.765.972s.317.864.765.972z"/><path d="m116.542 68.001-3.016-.73c-1.635-.396-2.896-1.657-3.293-3.292l-.73-3.016c-.108-.449-.51-.765-.972-.765s-.863.316-.972.765l-.729 3.016c-.396 1.635-1.657 2.896-3.293 3.292l-3.016.73c-.448.109-.765.511-.765.972 0 .462.316.863.765.972l3.016.729c1.636.396 2.897 1.658 3.293 3.293l.729 3.016c.108.448.51.765.972.765s.863-.316.972-.765l.73-3.016c.396-1.635 1.658-2.897 3.293-3.292l3.016-.729c.448-.109.765-.51.765-.972s-.317-.864-.765-.973z"/></g><g><g><g fill="#fff"><path d="m69.818 40.179c-.49 0-.953.155-1.373.421.017.416.043.83.043 1.247v3.429c0 1.289-.114 2.552-.321 3.782.49.392 1.048.634 1.651.634 1.861 0 3.369-2.13 3.369-4.757 0-2.626-1.508-4.756-3.369-4.756z"/><path d="m23.271 45.276v-3.429c0-.417.026-.832.043-1.247-.42-.266-.883-.421-1.373-.421-1.861 0-3.369 2.13-3.369 4.757s1.508 4.757 3.369 4.757c.603 0 1.161-.242 1.651-.634-.207-1.231-.321-2.494-.321-3.783z"/></g><path d="m81.066 119.518h-68.373c-1.105 0-2-.895-2-2v-21.173c0-16.05 13.011-29.062 29.062-29.062h12.249c16.05 0 29.062 13.011 29.062 29.062z" fill="#0089ef"/><path d="m52.004 67.283h-12.249c-1.597 0-3.164.131-4.691.379v51.856h21.63v-51.856c-1.526-.248-3.093-.379-4.69-.379z" fill="#ffd7e5"/><g fill="#fff"><path d="m45.88 67.884c-3.15 0-6.148-.646-8.872-1.809v.269c0 4.9 3.972 8.872 8.872 8.872s8.872-3.972 8.872-8.872v-.269c-2.725 1.164-5.723 1.809-8.872 1.809z"/><path d="m45.88 67.884c-12.486 0-22.608-10.122-22.608-22.608v-3.429c0-5.607 1.541-11.105 4.456-15.895 2.822-4.638 7.858-7.468 13.286-7.468h9.733c5.429 0 10.464 2.831 13.286 7.468 2.914 4.79 4.456 10.289 4.456 15.895v3.429c-.001 12.486-10.123 22.608-22.609 22.608z"/></g></g><g><g><g><path d="m104.938 95.645c0 13.184-10.688 23.872-23.872 23.872s-23.872-10.688-23.872-23.872c0-14.41 23.872-41.726 23.872-41.726s23.872 27.158 23.872 41.726z" fill="#6dc9f7"/></g><g fill="#fff"><path d="m60.193 95.645c0-12.217 17.153-33.704 22.376-39.963-.943-1.124-1.504-1.763-1.504-1.763s-23.872 27.316-23.872 41.726c0 13.184 10.688 23.872 23.872 23.872.504 0 1.003-.021 1.5-.052-12.484-.774-22.372-11.14-22.372-23.82z"/><circle cx="93.847" cy="106.234" r="1.91"/><path d="m96.925 103.343c-.213 0-.429-.034-.642-.106-1.047-.354-1.607-1.49-1.253-2.536 1.306-3.85 1.019-8.346-.853-13.361-.386-1.035.14-2.187 1.175-2.573 1.034-.387 2.188.14 2.573 1.175 2.201 5.901 2.501 11.298.894 16.043-.283.833-1.06 1.358-1.894 1.358z"/></g></g><path d="m89.057 32.482.918 3.791c.606 2.504 2.561 4.459 5.065 5.065l3.791.917-3.791.917c-2.504.606-4.459 2.561-5.065 5.065l-.918 3.791-.918-3.791c-.606-2.504-2.561-4.459-5.065-5.065l-3.791-.917 3.791-.917c2.504-.606 4.459-2.561 5.065-5.065z" fill="#d4fbff"/><g><path d="m104.532 57.199.73 3.016c.482 1.992 2.037 3.547 4.029 4.029l3.016.73-3.016.73c-1.992.482-3.547 2.037-4.029 4.029l-.73 3.016-.73-3.016c-.482-1.992-2.037-3.547-4.029-4.029l-3.016-.73 3.016-.73c1.992-.482 3.547-2.037 4.029-4.029z" fill="#d4fbff"/><g fill="#3a2c60"><path d="m36.064 100.5c0-.552-.447-1-1-1s-1 .448-1 1v7.644c0 .552.447 1 1 1s1-.448 1-1z"/><path d="m51.687 55.721c.334-.44.247-1.067-.193-1.401-.442-.335-1.068-.247-1.4.193-.015.019-1.485 1.918-4.213 1.918-2.748 0-4.139-1.819-4.202-1.905-.324-.443-.945-.543-1.393-.221-.448.323-.549.948-.226 1.396.08.112 2.013 2.729 5.82 2.729 3.71.001 5.723-2.598 5.807-2.709z"/><path d="m35.906 37.851c-1.249 0-2.261 1.012-2.261 2.261s1.012 2.261 2.261 2.261 2.261-1.012 2.261-2.261c-.001-1.249-1.013-2.261-2.261-2.261z"/><path d="m55.854 37.851c-1.249 0-2.261 1.012-2.261 2.261s1.012 2.261 2.261 2.261 2.261-1.012 2.261-2.261-1.012-2.261-2.261-2.261z"/><path d="m45.88 51.175c1.969 0 3.571-1.602 3.571-3.571v-1.507c0-.552-.447-1-1-1s-1 .448-1 1v1.507c0 .866-.705 1.571-1.571 1.571s-1.571-.705-1.571-1.571v-1.507c0-.552-.447-1-1-1s-1 .448-1 1v1.507c0 1.969 1.602 3.571 3.571 3.571z"/><path d="m54.134 35.733 4.427.771c.059.01.116.015.173.015.478 0 .899-.342.984-.828.095-.544-.27-1.062-.813-1.157l-4.427-.771c-.553-.09-1.063.27-1.157.813-.095.544.269 1.062.813 1.157z"/><path d="m37.282 33.762-4.427.771c-.544.095-.908.613-.813 1.157.085.486.507.828.984.828.057 0 .114-.005.173-.015l4.427-.771c.544-.095.908-.613.813-1.157-.094-.543-.604-.904-1.157-.813z"/><path d="m81.065 52.919c-.289 0-.563.125-.753.342-.512.586-7.007 8.068-13.128 17.168-3.357-1.973-7.127-3.304-11.148-3.845 6.414-3.07 11.23-8.953 12.852-16.041.306.09.617.149.93.149 2.45 0 4.369-2.528 4.369-5.756 0-2.296-.973-4.233-2.416-5.163 1.208-6.155 2.26-14.532.229-18.901-1.721-3.704-4.948-4.86-7.757-5.088-2.256-3.148-5.881-6.595-11.697-9.229-13.38-6.059-25.275-1.967-29.5 2.108-2.977 2.871-2.944 6.554-1.815 9.967-.559.617-1.06 1.355-1.472 2.243-2.03 4.369-.979 12.747.229 18.901-1.442.93-2.416 2.867-2.416 5.163 0 3.228 1.919 5.756 4.369 5.756.313 0 .623-.059.93-.149 1.62 7.081 6.428 12.96 12.833 16.033-14.665 1.986-26.01 14.569-26.01 29.77v21.173c0 1.654 1.346 3 3 3h68.373c13.714-.001 24.871-11.158 24.871-24.873 0-14.775-23.136-41.266-24.121-42.386-.19-.218-.464-.342-.752-.342zm-17.974 65.599h-5.396v-14.358c1.19 3.255 3.046 6.19 5.396 8.65zm-28.027-6.518c-.553 0-1 .448-1 1v5.518h-5.396v-28.4c0-5.891-3.237-11.227-8.352-13.98 3.742-3.599 8.476-6.169 13.747-7.259v26.456c0 .552.447 1 1 1s1-.448 1-1v-26.8c.063-.008.128-.014.191-.022.992 4.402 4.927 7.703 9.624 7.703 4.693 0 8.624-3.294 9.621-7.69.065.008.13.015.194.023v49.969h-19.629v-5.518c0-.552-.447-1-1-1zm3.048-44.435c2.434.851 5.047 1.319 7.768 1.319s5.333-.468 7.768-1.319c-.589 3.761-3.843 6.651-7.768 6.651s-7.178-2.889-7.768-6.651zm19.583 1.316c2.998.619 5.818 1.721 8.385 3.216-3.42 5.242-6.597 10.896-8.385 16.02zm11.561-20.329c.149-1.072.232-2.164.232-3.276v-3.429c0-.204-.017-.407-.021-.611 1.404-.36 2.72 1.479 2.72 3.699 0 2.331-1.432 4.261-2.931 3.617zm-49.684-3.616c0-2.221 1.314-4.059 2.72-3.699-.004.204-.021.406-.021.61v3.429c0 1.112.083 2.205.232 3.276-1.498.645-2.931-1.286-2.931-3.616zm4.699.34v-3.429c0-5.425 1.49-10.742 4.311-15.376 2.622-4.31 7.386-6.987 12.432-6.987h9.732c5.046 0 9.81 2.677 12.432 6.987 2.82 4.635 4.311 9.952 4.311 15.376v3.429c0 11.915-9.693 21.608-21.608 21.608s-21.61-9.693-21.61-21.608zm-12.578 72.242v-21.173c0-7.182 2.717-13.737 7.171-18.704 4.761 2.32 7.804 7.137 7.804 12.477v28.4h-13.975c-.551 0-1-.449-1-1zm53.398 1v-3.828c1.859 1.562 3.947 2.858 6.209 3.828zm15.974 0c-12.611 0-22.872-10.261-22.872-22.873 0-12.45 18.844-35.419 22.874-40.189 4.035 4.75 22.87 27.599 22.87 40.189 0 12.612-10.26 22.873-22.872 22.873z"/><path d="m79.048 43.228 3.791.917c2.149.521 3.809 2.18 4.329 4.329l.917 3.791c.108.449.51.765.972.765s.863-.316.972-.765l.918-3.791c.521-2.149 2.18-3.808 4.329-4.329l3.791-.917c.448-.109.765-.51.765-.972s-.316-.863-.765-.972l-3.791-.917c-2.149-.52-3.809-2.179-4.329-4.329l-.918-3.791c-.108-.449-.51-.765-.972-.765s-.863.316-.972.765l-.917 3.791c-.521 2.15-2.18 3.809-4.329 4.329l-3.791.917c-.448.109-.765.51-.765.972s.317.863.765.972zm10.009-6.508c.734 2.708 2.828 4.802 5.536 5.536-2.708.734-4.801 2.828-5.535 5.536-.734-2.708-2.828-4.801-5.536-5.536 2.707-.735 4.8-2.828 5.535-5.536z"/><path d="m112.542 64.001-3.016-.73c-1.636-.396-2.897-1.657-3.293-3.292l-.73-3.016c-.108-.449-.51-.765-.972-.765s-.863.316-.972.765l-.729 3.016c-.396 1.635-1.657 2.896-3.293 3.292l-3.016.73c-.448.109-.765.511-.765.972 0 .462.316.863.765.972l3.016.729c1.636.396 2.897 1.658 3.293 3.293l.729 3.016c.108.448.51.765.972.765s.863-.316.972-.765l.73-3.016c.396-1.635 1.657-2.896 3.293-3.292l3.016-.729c.448-.109.765-.51.765-.972s-.317-.864-.765-.973zm-8.011 4.713c-.654-1.728-2.012-3.084-3.74-3.74 1.729-.656 3.086-2.013 3.741-3.741.654 1.729 2.012 3.085 3.74 3.741-1.728.655-3.085 2.012-3.741 3.74z"/></g></g></g></g></g></svg>